<svg width="132" height="42" viewBox="0 0 132 42" fill="none" xmlns="http://www.w3.org/2000/svg">
<g clip-path="url(#clip0_13_6718)">
<mask id="mask0_13_6718" style="mask-type:luminance" maskUnits="userSpaceOnUse" x="0" y="4" width="132" height="34">
<path d="M0 4.87793H131.511V37.1249H0V4.87793Z" fill="white"/>
</mask>
<g mask="url(#mask0_13_6718)">
<path d="M86.165 23.0513L92.5699 35.9768H102.522V5.6543H92.9944V18.2768C92.9948 18.4676 92.9306 18.6529 92.8122 18.8025C92.6938 18.9521 92.5282 19.0573 92.3424 19.1007C92.1567 19.1442 91.9616 19.1235 91.7891 19.042C91.6166 18.9605 91.4768 18.8229 91.3925 18.6518L84.9544 5.6543H75.002V35.9753H84.5585V23.4248C84.5584 23.2341 84.6229 23.0491 84.7414 22.8997C84.8599 22.7503 85.0255 22.6455 85.2112 22.6022C85.3969 22.5589 85.5918 22.5797 85.7641 22.6613C85.9365 22.7428 86.0762 22.8803 86.1604 23.0513" fill="white"/>
<path d="M60.2627 5.6543H70.7132V35.9753H60.2627V5.6543Z" fill="white"/>
<path d="M105.61 17.9455V23.5345C105.61 28.9705 107.661 32.9005 111.703 35.2135C118.153 38.905 127.441 36.6265 131.512 33.616V19.5055H122.074V28.3795L121.894 28.45C121.145 28.7408 120.339 28.8601 119.538 28.7991C118.736 28.7381 117.958 28.4984 117.261 28.0975C116.605 27.5682 116.092 26.8827 115.77 26.1039C115.447 25.325 115.326 24.4776 115.416 23.6395V17.386C115.322 16.5738 115.526 15.7551 115.99 15.0822C116.455 14.4093 117.148 13.9279 117.94 13.7275C118.803 13.5198 119.712 13.6474 120.484 14.0842C121.255 14.5211 121.833 15.2348 122.098 16.081L131.241 11.1775C130.077 9.15463 128.374 7.49461 126.322 6.38231C124.27 5.27 121.949 4.74907 119.619 4.87751C119.002 4.87751 118.402 4.90751 117.831 4.95851C114.741 5.14317 111.792 6.31639 109.419 8.30501C108.134 9.54748 107.13 11.0507 106.474 12.7136C105.819 14.3764 105.527 16.1604 105.618 17.9455" fill="white"/>
<path d="M25.9305 5.6543H0V14.5313H7.8V35.9813H18.1155V14.5313H25.923L25.9305 5.6543Z" fill="white"/>
<path d="M37.8992 36.3208L44.4332 16.0183C44.4939 15.8255 44.6217 15.6609 44.7935 15.5543C44.9652 15.4477 45.1695 15.4063 45.3692 15.4375C45.5689 15.4688 45.7507 15.5706 45.8817 15.7245C46.0128 15.8784 46.0842 16.0742 46.0832 16.2763L46.0832 36.3223L55.9922 36.3223L55.9922 5.99977L37.2557 5.99976L27.0002 36.3208L37.8992 36.3208Z" fill="white"/>
</g>
</g>
<defs>
<clipPath id="clip0_13_6718">
<rect width="132" height="42" fill="white"/>
</clipPath>
</defs>
</svg>
