<svg width="34" height="38" viewBox="0 0 34 38" fill="none" xmlns="http://www.w3.org/2000/svg">
<g id="instagram" clip-path="url(#clip0_13_5408)">
<path id="Vector" d="M17.007 10.7073C12.4207 10.7073 8.72134 14.4066 8.72134 18.993C8.72134 23.5793 12.4207 27.2786 17.007 27.2786C21.5933 27.2786 25.2927 23.5793 25.2927 18.993C25.2927 14.4066 21.5933 10.7073 17.007 10.7073ZM17.007 24.3797C14.0432 24.3797 11.6202 21.964 11.6202 18.993C11.6202 16.0219 14.036 13.6062 17.007 13.6062C19.978 13.6062 22.3938 16.0219 22.3938 18.993C22.3938 21.964 19.9708 24.3797 17.007 24.3797ZM27.5642 10.3684C27.5642 11.4428 26.6989 12.301 25.6316 12.301C24.5571 12.301 23.699 11.4356 23.699 10.3684C23.699 9.30111 24.5643 8.43577 25.6316 8.43577C26.6989 8.43577 27.5642 9.30111 27.5642 10.3684ZM33.0519 12.3298C32.9293 9.74099 32.338 7.44783 30.4415 5.5585C28.5521 3.66917 26.259 3.07785 23.6702 2.94805C21.002 2.79661 13.0048 2.79661 10.3366 2.94805C7.75504 3.07064 5.46188 3.66196 3.56534 5.55129C1.66879 7.44062 1.08469 9.73378 0.954885 12.3226C0.80345 14.9907 0.80345 22.988 0.954885 25.6561C1.07748 28.2449 1.66879 30.5381 3.56534 32.4274C5.46188 34.3167 7.74783 34.9081 10.3366 35.0379C13.0048 35.1893 21.002 35.1893 23.6702 35.0379C26.259 34.9153 28.5521 34.324 30.4415 32.4274C32.3308 30.5381 32.9221 28.2449 33.0519 25.6561C33.2034 22.988 33.2034 14.998 33.0519 12.3298ZM29.605 28.5189C29.0425 29.9323 27.9536 31.0212 26.533 31.5909C24.4057 32.4346 19.3579 32.2399 17.007 32.2399C14.6562 32.2399 9.60111 32.4274 7.48102 31.5909C6.06762 31.0284 4.97873 29.9396 4.40905 28.5189C3.56534 26.3916 3.76004 21.3438 3.76004 18.993C3.76004 16.6421 3.57255 11.5871 4.40905 9.46697C4.97152 8.05358 6.06041 6.96468 7.48102 6.395C9.60832 5.55129 14.6562 5.74599 17.007 5.74599C19.3579 5.74599 24.4129 5.5585 26.533 6.395C27.9464 6.95747 29.0353 8.04636 29.605 9.46697C30.4487 11.5943 30.254 16.6421 30.254 18.993C30.254 21.3438 30.4487 26.3989 29.605 28.5189Z" fill="#6B6B6B"/>
</g>
<defs>
<clipPath id="clip0_13_5408">
<rect width="32.3062" height="36.9213" fill="white" transform="translate(0.84668 0.539551)"/>
</clipPath>
</defs>
</svg>
