<svg width="34" height="30" viewBox="0 0 34 30" fill="none" xmlns="http://www.w3.org/2000/svg">
<g id="youtube">
<path id="Vector" d="M31.9906 7.27049C31.6307 5.88475 30.5705 4.79338 29.2243 4.42301C26.7843 3.75 16.9999 3.75 16.9999 3.75C16.9999 3.75 7.21566 3.75 4.77555 4.42301C3.42937 4.79344 2.36913 5.88475 2.00928 7.27049C1.35547 9.78223 1.35547 15.0227 1.35547 15.0227C1.35547 15.0227 1.35547 20.2632 2.00928 22.775C2.36913 24.1607 3.42937 25.2066 4.77555 25.577C7.21566 26.25 16.9999 26.25 16.9999 26.25C16.9999 26.25 26.7842 26.25 29.2243 25.577C30.5705 25.2066 31.6307 24.1607 31.9906 22.775C32.6444 20.2632 32.6444 15.0227 32.6444 15.0227C32.6444 15.0227 32.6444 9.78223 31.9906 7.27049ZM13.7999 19.7807V10.2647L21.9777 15.0229L13.7999 19.7807Z" fill="#6B6B6B"/>
</g>
</svg>
